<svg width="134" height="31" viewBox="0 0 134 31" fill="none" xmlns="http://www.w3.org/2000/svg">
<path d="M15.9097 30.0342C15.9097 30.4731 15.5398 30.8212 15.1009 30.7993C6.97734 30.3773 0.5 23.6359 0.5 15.4097C0.5 7.1836 7.41287 0 15.9097 0C19.1736 0 22.3686 1.04593 24.9935 2.96122C25.3483 3.22018 25.4139 3.72296 25.1364 4.06264L23.6852 5.84508C23.4297 6.15785 22.9756 6.21838 22.6477 5.98297C20.6921 4.5856 18.3278 3.82385 15.9114 3.82385C9.52321 3.82385 4.32553 9.02153 4.32553 15.4097C4.32553 21.798 9.13814 26.6022 15.1934 26.9738C15.597 26.999 15.9097 27.332 15.9097 27.7355V30.0342Z" fill="#7B20C8"/>
<path d="M27.9432 11.0273H18.5803C18.5803 11.0273 16.0664 11.0273 16.0664 13.7969V17.3634C16.0664 17.3634 16.0513 20.1094 18.5803 20.1094H21.2321C22.6262 20.1094 23.7578 21.2394 23.7578 22.6351C23.7578 23.3397 23.4686 23.9787 23.0011 24.436C22.9355 24.4999 22.8666 24.5622 22.7943 24.6193C21.5987 25.6501 20.1896 26.4421 18.6425 26.918C18.3197 27.0172 18.0944 27.3115 18.0944 27.6512V30.0339C18.0944 30.53 18.5618 30.8999 19.0428 30.7772C25.7068 29.0805 30.6505 23.0286 30.6505 15.8433C30.6505 11.029 27.9432 11.0307 27.9432 11.0307V11.0273Z" fill="#FB5B3E"/>
<path d="M62.9355 22.7441H60.6436V14.899C60.6436 13.3712 60.2812 12.1763 59.5565 11.3144C58.8513 10.4329 57.9405 9.99217 56.8239 9.99217C55.727 9.99217 54.8259 10.4329 54.1207 11.3144C53.4156 12.1763 53.063 13.3712 53.063 14.899V22.7441H50.7418V14.899C50.7418 13.3712 50.3892 12.1763 49.684 11.3144C48.9788 10.4329 48.068 9.99217 46.9514 9.99217C45.8545 9.99217 44.9534 10.4329 44.2482 11.3144C43.5235 12.1763 43.1611 13.3712 43.1611 14.899V22.7441H40.8693V8.05293H43.1023V9.7865C43.1415 9.72773 43.1807 9.67876 43.2199 9.63958C43.2786 9.60041 43.3178 9.56123 43.3374 9.52205C44.2776 8.30758 45.5411 7.70034 47.1277 7.70034C48.8319 7.70034 50.2521 8.36635 51.3882 9.69835C51.5841 9.89423 51.7506 10.1097 51.8877 10.3448C52.0248 10.5798 52.1521 10.8247 52.2696 11.0793C52.348 10.8051 52.4557 10.5504 52.5929 10.3154C52.73 10.0803 52.8671 9.86485 53.0042 9.66897C53.9836 8.35655 55.3156 7.70034 57.0002 7.70034C58.724 7.70034 60.1441 8.36635 61.2607 9.69835C61.8287 10.3448 62.2499 11.1087 62.5241 11.9902C62.7983 12.8521 62.9355 13.8315 62.9355 14.9284V22.7441ZM64.6144 8.05293H67.1119L72.0481 19.7471L77.0138 8.05293H79.5113L72.3126 25.0947C72.0579 25.6824 71.7347 26.2113 71.343 26.6814C70.9512 27.1515 70.4811 27.5629 69.9326 27.9154C68.8553 28.6206 67.6604 28.9732 66.348 28.9732H65.2902V26.6814H66.348C67.2098 26.6814 67.9934 26.4561 68.6985 26.0056C69.3645 25.5746 69.864 24.9674 70.197 24.1839L70.8435 22.7148L64.6144 8.05293ZM87.9856 7.70034C89.6506 7.70034 91.012 8.23902 92.0697 9.31638C92.1677 9.39473 92.2558 9.48288 92.3342 9.58082C92.4125 9.67876 92.4909 9.7767 92.5692 9.87464V8.05293H95.625V21.1869C95.625 23.5766 94.959 25.4767 93.627 26.8871C92.3146 28.2974 90.5614 29.0026 88.3675 29.0026C87.2902 29.0026 86.3695 28.9242 85.6056 28.7675C84.8612 28.6304 84.2148 28.4345 83.6664 28.1799C83.1179 27.9252 82.6184 27.6412 82.1679 27.3278L83.7251 24.5952C84.4107 25.0654 85.1061 25.3984 85.8113 25.5942C86.5165 25.7901 87.3196 25.8881 88.2206 25.8881C89.5526 25.8881 90.5516 25.4571 91.2176 24.5952C91.4919 24.2231 91.7073 23.8117 91.8641 23.3612C92.0403 22.9302 92.1383 22.4503 92.1579 21.9214C92.1579 21.8039 92.1579 21.706 92.1579 21.6276C92.1579 21.5297 92.1677 21.4219 92.1873 21.3044C92.1285 21.3632 92.0697 21.4317 92.011 21.5101C91.9718 21.5688 91.9228 21.6276 91.8641 21.6864C90.8651 22.6266 89.5722 23.0967 87.9856 23.0967C85.8896 23.0967 84.1561 22.3524 82.7849 20.8637C81.4137 19.375 80.7281 17.5532 80.7281 15.3985C80.7281 13.2634 81.4137 11.4417 82.7849 9.93341C84.1561 8.4447 85.8896 7.70034 87.9856 7.70034ZM88.25 11.0499C87.0551 11.0499 86.0757 11.4711 85.3118 12.3134C84.5282 13.1557 84.1365 14.1841 84.1365 15.3985C84.1365 16.613 84.5282 17.6512 85.3118 18.5131C86.0757 19.3358 87.0551 19.7471 88.25 19.7471C89.4253 19.7471 90.3753 19.3358 91.1001 18.5131C91.4723 18.0821 91.7563 17.612 91.9522 17.1027C92.1481 16.5934 92.246 16.0254 92.246 15.3985C92.246 14.7913 92.1481 14.233 91.9522 13.7237C91.7563 13.2144 91.4723 12.7443 91.1001 12.3134C90.3753 11.4711 89.4253 11.0499 88.25 11.0499ZM98.8169 8.05293H102.196V15.8687C102.196 17.0244 102.519 17.9548 103.165 18.66C103.792 19.3652 104.586 19.7178 105.545 19.7178C106.486 19.7178 107.269 19.3652 107.896 18.66C108.523 17.9548 108.836 17.0244 108.836 15.8687V8.05293H112.215V15.7511C112.215 17.8862 111.569 19.6394 110.276 21.0106C108.983 22.4013 107.406 23.0967 105.545 23.0967C103.665 23.0967 102.069 22.4013 100.756 21.0106C99.4633 19.6394 98.8169 17.8862 98.8169 15.7511V8.05293ZM113.851 8.05293H117.553L121.99 18.3368L126.338 8.05293H129.982L122.842 25.0654C122.568 25.653 122.225 26.1819 121.813 26.652C121.422 27.1221 120.952 27.5335 120.403 27.8861C119.287 28.6108 118.072 28.9732 116.76 28.9732H115.291V25.5942H116.76C117.445 25.5942 118.053 25.4277 118.581 25.0947C119.091 24.7813 119.473 24.321 119.727 23.7138L120.197 22.656L113.851 8.05293Z" fill="#11001C"/>
</svg>
